<?xml version="1.0" encoding="iso-8859-1"?>
<!-- Generator: Adobe Illustrator 19.0.0, SVG Export Plug-In . SVG Version: 6.00 Build 0)  -->
<svg version="1.1" id="Layer_1" xmlns="http://www.w3.org/2000/svg" xmlns:xlink="http://www.w3.org/1999/xlink" x="0px" y="0px"
	 viewBox="0 0 512 512" style="enable-background:new 0 0 512 512;" xml:space="preserve">
<polygon style="fill:#CCCCCC;" points="303.995,473.732 207.993,473.732 216.031,440.249 223.797,407.946 288.203,407.946 
	295.956,440.249 "/>
<polygon style="fill:#999999;" points="295.956,440.249 216.031,440.249 223.797,407.946 249.925,375.918 288.203,407.946 "/>
<path style="fill:#CCCCCC;" d="M512,62.829v311.238c0,18.711-15.17,33.881-33.881,33.881H33.881C15.17,407.946,0,392.778,0,374.067
	V62.829c0-18.711,15.17-33.881,33.881-33.881h444.239C496.83,28.947,512,44.118,512,62.829z"/>
<path style="fill:#E6E6E6;" d="M512,62.829v311.238c0,18.711-15.17,33.881-33.881,33.881H205.943L312.207,28.948h165.912
	C496.83,28.947,512,44.118,512,62.829z"/>
<rect y="75.427" style="fill:#9BD7F4;" width="512" height="286.042"/>
<polygon style="fill:#C8EDFC;" points="512,75.427 512,361.469 218.976,361.469 299.174,75.427 "/>
<rect x="177.715" y="464.415" style="fill:#E6E6E6;" width="156.557" height="18.636"/>
<g>
	<rect y="69.836" style="fill:#B3B3B3;" width="512" height="11.182"/>
	<rect y="356.835" style="fill:#B3B3B3;" width="512" height="11.182"/>
</g>
<g>
	<path style="fill:#F9C573;" d="M281.457,138.604c-1.416-0.199-2.87-0.286-4.336-0.286h-40.689V298.59h18.636v-45.385h22.053
		c18.885,0,34.241-15.356,34.241-34.241v-46.404C311.362,155.141,298.304,140.729,281.457,138.604z M292.726,218.964
		c0,8.61-6.995,15.605-15.605,15.605h-22.053v-77.614h22.053c8.61,0,15.605,6.995,15.605,15.605V218.964z"/>
	<path style="fill:#F9C573;" d="M162.906,138.318h-14.462L107.32,298.59h19.233l7.541-29.371h43.162l7.541,29.371h19.233
		L162.906,138.318z M138.877,250.583l16.797-65.463l16.797,65.463H138.877z"/>
</g>
<g>
	<polygon style="fill:#FCD8A9;" points="376.514,156.955 376.514,279.954 401.984,279.954 401.984,298.59 332.409,298.59 
		332.409,279.954 357.878,279.954 357.878,156.955 332.409,156.955 332.409,138.318 401.984,138.318 401.984,156.955 	"/>
	<path style="fill:#FCD8A9;" d="M311.362,172.559v46.404c0,18.885-15.356,34.241-34.241,34.241h-22.053v45.385h-18.462
		l18.462-65.848v1.826h22.053c8.61,0,15.605-6.995,15.605-15.605v-46.404c0-8.61-6.995-15.605-15.605-15.605h-0.808l5.144-18.351
		C298.304,140.729,311.362,155.141,311.362,172.559z"/>
</g>
<g>
</g>
<g>
</g>
<g>
</g>
<g>
</g>
<g>
</g>
<g>
</g>
<g>
</g>
<g>
</g>
<g>
</g>
<g>
</g>
<g>
</g>
<g>
</g>
<g>
</g>
<g>
</g>
<g>
</g>
</svg>
