<?xml version="1.0" encoding="iso-8859-1"?>
<!-- Generator: Adobe Illustrator 19.0.0, SVG Export Plug-In . SVG Version: 6.00 Build 0)  -->
<svg version="1.1" id="Layer_1" xmlns="http://www.w3.org/2000/svg" xmlns:xlink="http://www.w3.org/1999/xlink" x="0px" y="0px"
	 viewBox="0 0 508 508" style="enable-background:new 0 0 508 508;" xml:space="preserve">
<circle style="fill:#84DBFF;" cx="254" cy="254" r="254"/>
<g>
	<path style="fill:#FFFFFF;" d="M326,243.2c-1.2,0-2.8-0.4-4.4-1.2c-1.6-1.2-3.2-3.2-6.4-5.2c-1.6-0.8-3.6-1.2-5.2-1.6
		c-1.6-0.4-3.6-0.4-5.2-0.8c-3.6-0.4-7.6-0.8-12-1.2s-8.4-0.8-13.2-1.2c-1.2,0-2.8,0-4.8,0.4c-1.6,0.4-3.2,1.6-4,2.4
		c-1.6,1.2-2.4,1.2-4,1.2c-1.6-0.4-3.6-1.2-6-2s-4.8-2-8.4-2.4c-1.2,0-3.2,0-4.8,0.4s-2.4,0.8-3.2,0.8c-2,0.4-4,0.4-6.4,0.4
		s-5.2-0.4-8,0.4c-2.8,0.4-5.6,2-7.2,2.4c-3.6,1.2-7.6,1.2-12,1.6c-4.4,0-8.4,0.4-12,0.8c-14.8,0.8-24.8,2-24.8,2s10,1.2,24.8,2.4
		c3.6,0.4,7.6,0.4,12,0.8c4,0,8.8,0.8,14.4-0.8c2.8-0.8,4.4-1.6,6-2s4,0,6.4,0s5.2,0.4,8.4-0.4c1.6-0.4,2.8-0.8,4-0.8
		c1.2-0.4,1.6-0.4,2.8-0.4s3.6,0.8,5.6,1.6c2.4,0.8,4.8,2,8,2.4c1.6,0,3.2,0,5.2-0.4c0.8-0.4,1.6-0.8,2.4-1.2s1.2-0.8,2-1.2
		c2-1.6,2-1.6,4-1.6c4.4,0,9.2,0,13.2,0c4.4,0,8.4,0,12,0s7.2-0.4,9.6,0.4c2.4,0.8,4.4,2.8,6.8,3.6c2,0.8,4,0.8,5.2,0.4
		c1.2-0.4,1.6-1.2,1.6-1.2S327.2,242.8,326,243.2z"/>
	<polygon style="fill:#FFFFFF;" points="297.2,125.2 262.4,125.2 273.2,60.4 210.8,137.2 245.6,137.2 234.8,202.4 	"/>
</g>
<path style="fill:#2B3B4E;" d="M385.6,241.6v229.6c-6.4,4-13.2,7.6-20,10.8V241.6H385.6z"/>
<circle style="fill:#FFFFFF;" cx="375.6" cy="238.8" r="28.4"/>
<g>
	<path style="fill:#324A5E;" d="M408,438h-64.4c-6,0-10.8-4.8-10.8-10.8v-0.8c0-6,4.8-10.8,10.8-10.8H408c6,0,10.8,4.8,10.8,10.8
		v0.8C418.8,433.2,414,438,408,438z"/>
	<path style="fill:#324A5E;" d="M408,404.8h-64.4c-6,0-10.8-4.8-10.8-10.8v-0.8c0-6,4.8-10.8,10.8-10.8H408c6,0,10.8,4.8,10.8,10.8
		v0.8C418.8,400,414,404.8,408,404.8z"/>
	<path style="fill:#324A5E;" d="M408,371.2h-64.4c-6,0-10.8-4.8-10.8-10.8v-0.8c0-6,4.8-10.8,10.8-10.8H408c6,0,10.8,4.8,10.8,10.8
		v0.8C418.8,366.4,414,371.2,408,371.2z"/>
	<path style="fill:#324A5E;" d="M408,338h-64.4c-6,0-10.8-4.8-10.8-10.8v-0.8c0-6,4.8-10.8,10.8-10.8H408c6,0,10.8,4.8,10.8,10.8
		v0.8C418.8,333.2,414,338,408,338z"/>
	<path style="fill:#324A5E;" d="M408,304.4h-64.4c-6,0-10.8-4.8-10.8-10.8v-0.8c0-6,4.8-10.8,10.8-10.8H408c6,0,10.8,4.8,10.8,10.8
		v0.8C418.8,299.6,414,304.4,408,304.4z"/>
</g>
<path style="fill:#2B3B4E;" d="M142.4,241.6V482c-6.8-3.2-13.6-6.8-20-10.8V241.6H142.4z"/>
<circle style="fill:#FFFFFF;" cx="132.4" cy="238.8" r="28.4"/>
<g>
	<path style="fill:#324A5E;" d="M164.4,438H100c-6,0-10.8-4.8-10.8-10.8v-0.8c0-6,4.8-10.8,10.8-10.8h64.4c6,0,10.8,4.8,10.8,10.8
		v0.8C175.2,433.2,170.4,438,164.4,438z"/>
	<path style="fill:#324A5E;" d="M164.4,404.8H100c-6,0-10.8-4.8-10.8-10.8v-0.8c0-6,4.8-10.8,10.8-10.8h64.4c6,0,10.8,4.8,10.8,10.8
		v0.8C175.2,400,170.4,404.8,164.4,404.8z"/>
	<path style="fill:#324A5E;" d="M164.4,371.2H100c-6,0-10.8-4.8-10.8-10.8v-0.8c0-6,4.8-10.8,10.8-10.8h64.4c6,0,10.8,4.8,10.8,10.8
		v0.8C175.2,366.4,170.4,371.2,164.4,371.2z"/>
	<path style="fill:#324A5E;" d="M164.4,338H100c-6,0-10.8-4.8-10.8-10.8v-0.8c0-6,4.8-10.8,10.8-10.8h64.4c6,0,10.8,4.8,10.8,10.8
		v0.8C175.2,333.2,170.4,338,164.4,338z"/>
	<path style="fill:#324A5E;" d="M164.4,304.4H100c-6,0-10.8-4.8-10.8-10.8v-0.8c0-6,4.8-10.8,10.8-10.8h64.4c6,0,10.8,4.8,10.8,10.8
		v0.8C175.2,299.6,170.4,304.4,164.4,304.4z"/>
</g>
<g>
</g>
<g>
</g>
<g>
</g>
<g>
</g>
<g>
</g>
<g>
</g>
<g>
</g>
<g>
</g>
<g>
</g>
<g>
</g>
<g>
</g>
<g>
</g>
<g>
</g>
<g>
</g>
<g>
</g>
</svg>
